<svg width="1020" height="779" viewBox="0 0 1020 779" fill="none" xmlns="http://www.w3.org/2000/svg">
<path id="Vector" d="M174.802 109.432C169.322 116.082 167.212 125.432 164.852 134.222C145.852 205.062 99.0321 262.042 45.7121 302.742C23.1321 319.982 -4.35794 343.102 0.582065 374.012C3.24206 390.612 14.9121 402.832 23.5821 416.352C41.7721 444.662 47.6721 483.142 39.0021 517.032C29.1421 555.592 1.58206 591.572 10.1121 630.562C15.3721 654.562 33.2321 671.642 50.4021 686.322C77.1887 709.209 104.829 730.649 133.322 750.642C152.422 764.042 172.742 777.082 195.002 778.782C214.602 780.282 233.802 772.832 252.412 765.482C268.672 759.052 285.342 752.362 298.472 739.482C307.042 731.072 313.872 720.222 323.392 713.342C345.752 697.182 374.472 707.422 400.112 714.342C460.612 730.582 525.362 724.652 582.932 697.602C671.242 656.102 738.552 568.952 824.932 522.192C862.072 502.082 902.472 489.602 936.862 463.702C956.237 448.956 972.887 430.938 986.062 410.462C1012.06 370.352 1026.12 319.212 1022.06 269.152C1018 219.092 995.252 170.852 959.522 142.592C921.272 112.342 872.962 106.692 829.442 88.5322C784.502 69.7722 744.522 37.5322 700.012 17.4022C663.996 1.15881 624.8 -6.81499 585.3 -5.93422C545.8 -5.05344 506.998 4.65956 471.742 22.4922C423.302 46.9922 374.202 104.152 320.252 108.492C281.812 111.492 204.822 73.0122 174.802 109.432Z" fill="url(#paint0_linear)"/>
<defs>
<linearGradient id="paint0_linear" x1="874.5" y1="166.5" x2="110" y2="549.5" gradientUnits="userSpaceOnUse">
<stop stop-color="#63DAFF"/>
<stop offset="1" stop-color="#F36BFF" stop-opacity="0.54"/>
</linearGradient>
</defs>
</svg>
